<?xml version="1.0" encoding="utf-8"?>
<!-- Generator: Adobe Illustrator 19.2.1, SVG Export Plug-In . SVG Version: 6.00 Build 0)  -->
<svg version="1.1" id="Layer_1" xmlns="http://www.w3.org/2000/svg" xmlns:xlink="http://www.w3.org/1999/xlink" x="0px" y="0px"
	 viewBox="0 0 34 26" style="enable-background:new 0 0 34 26;" xml:space="preserve">
<style type="text/css">
	.st0{fill:#F03C6E;}
</style>
<path class="st0" d="M15.4,9.4c0,0,0.1,0.1,0.1,0.1l2.8,2.8c0.1,0.1,0.3,0.2,0.5,0.2c0.2,0,0.4-0.1,0.5-0.2c0.3-0.3,0.3-0.7,0-0.9
	l-1.7-1.7h5.8c0.4,0,0.7-0.3,0.7-0.7s-0.3-0.7-0.7-0.7h-5.8l1.7-1.7c0.3-0.3,0.3-0.7,0-0.9c-0.3-0.3-0.7-0.3-0.9,0l-2.9,2.8
	c0,0-0.1,0.1-0.1,0.1c0,0,0,0,0,0c0,0,0,0.1-0.1,0.1c0,0,0,0,0,0.1c0,0,0,0.1,0,0.1v0.3c0,0,0,0.1,0,0.1C15.2,9.3,15.2,9.3,15.4,9.4
	C15.3,9.4,15.3,9.4,15.4,9.4C15.3,9.4,15.3,9.4,15.4,9.4L15.4,9.4z M29.5,9.5c0,1.9-0.7,3.8-2,5.3c0.3,0.5,0.6,0.9,1.1,1.2
	c0.3,0.2,0.5,0.6,0.4,1c-0.1,0.4-0.4,0.7-0.8,0.7c-1.3,0.2-2.6,0-3.7-0.5c-1.6,0.8-3.4,1.2-5.1,1.2c-5.6,0-10.1-4-10.1-9
	c0-5,4.6-9,10.1-9C25,0.5,29.5,4.6,29.5,9.5z M19.4,1.9c-4.8,0-8.8,3.4-8.8,7.6c0,4.2,3.9,7.6,8.8,7.6c1.7,0,3.3-0.4,4.8-1.2
	c0.2-0.1,0.5-0.1,0.7,0c0.6,0.4,1.3,0.6,2.2,0.6c-0.4-0.4-0.7-0.9-0.9-1.6c-0.1-0.2,0-0.5,0.1-0.7c1.2-1.3,1.9-3,1.9-4.7
	C28.1,5.3,24.2,1.9,19.4,1.9z M19.8,19.3c-0.3-0.1-0.7,0.1-0.9,0.4c-0.9,2.6-3.7,4.4-6.8,4.4c-1.4,0-2.7-0.3-3.9-1
	C8,23,7.7,23,7.5,23.1c-0.5,0.3-1,0.4-1.5,0.5c0.3-0.3,0.5-0.7,0.6-1.1c0.1-0.2,0-0.5-0.1-0.7C5.5,20.7,5,19.4,5,18
	c0-2,1.2-3.9,3.1-5.1c0.3-0.2,0.4-0.6,0.2-0.9c0,0,0,0,0,0c-0.2-0.3-0.6-0.4-0.9-0.2c0,0,0,0,0,0c-2.4,1.4-3.7,3.7-3.7,6.2
	c0,1.6,0.6,3.2,1.6,4.4c-0.2,0.4-0.5,0.7-0.8,0.9c-0.3,0.2-0.5,0.6-0.4,0.9c0.1,0.3,0.4,0.6,0.7,0.7C5.5,25,6.7,25,7.9,24.4
	c1.3,0.7,2.8,1,4.2,1c3.7,0,7-2.1,8.1-5.3C20.4,19.8,20.2,19.5,19.8,19.3z"/>
</svg>
