<?xml version="1.0" encoding="utf-8"?>
<!-- Generator: Adobe Illustrator 19.2.1, SVG Export Plug-In . SVG Version: 6.00 Build 0)  -->
<svg version="1.1" id="Layer_1" xmlns="http://www.w3.org/2000/svg" xmlns:xlink="http://www.w3.org/1999/xlink" x="0px" y="0px"
	 viewBox="0 0 43 44" style="enable-background:new 0 0 43 44;" xml:space="preserve">
<style type="text/css">
	.st0{fill:#F03C6E;}
</style>
<path class="st0" d="M19.7,15.7c0,0,0.1,0.1,0.1,0.2L24,20c0.2,0.2,0.5,0.3,0.7,0.3c0.3,0,0.5-0.1,0.7-0.3c0.4-0.4,0.4-1,0-1.4
	l-2.5-2.5h8.6c0.5,0,1-0.4,1-1s-0.4-1-1-1h-8.6l2.6-2.5c0.4-0.4,0.4-1,0-1.4c-0.4-0.4-1-0.4-1.4,0l-4.2,4.2c0,0-0.1,0.1-0.1,0.2
	c0,0,0,0,0,0c0,0,0,0.1-0.1,0.1c0,0,0,0,0,0.1c0,0,0,0.1,0,0.1v0.4c0,0,0,0.1,0,0.1c0,0,0,0,0,0.1C19.6,15.6,19.6,15.6,19.7,15.7
	C19.6,15.7,19.6,15.7,19.7,15.7L19.7,15.7z M40.6,15.8c0,2.8-1,5.6-3,7.9c0.4,0.8,0.9,1.4,1.6,1.8c0.5,0.3,0.7,0.9,0.6,1.5
	c-0.1,0.6-0.6,1-1.2,1.1c-1.9,0.3-3.8,0-5.5-0.8c-2.4,1.2-5,1.8-7.6,1.8c-8.3,0-15-6-15-13.3c0-7.4,6.8-13.3,15-13.3
	C33.9,2.5,40.6,8.5,40.6,15.8z M25.6,4.6c-7.2,0-13,5.1-13,11.3c0,6.2,5.8,11.3,13,11.3c2.5,0,5-0.6,7.1-1.8c0.3-0.2,0.7-0.2,1,0
	c0.9,0.6,2,0.9,3.2,0.9c-0.6-0.6-1-1.4-1.4-2.3c-0.1-0.4,0-0.7,0.2-1c1.8-2,2.8-4.4,2.8-7C38.6,9.6,32.8,4.6,25.6,4.6z M26.3,30.4
	c-0.5-0.2-1.1,0.1-1.3,0.6c-1.3,3.8-5.5,6.5-10.1,6.5c-2,0-4-0.5-5.8-1.5c-0.3-0.2-0.7-0.2-1,0c-0.7,0.4-1.5,0.6-2.2,0.7
	c0.4-0.5,0.7-1,0.9-1.7c0.1-0.4,0-0.7-0.2-1c-1.5-1.6-2.3-3.6-2.3-5.7c0-3,1.7-5.8,4.6-7.6c0.5-0.3,0.6-0.9,0.4-1.3c0,0,0,0,0,0
	C9,18.9,8.4,18.8,7.9,19c0,0,0,0,0,0c-3.5,2.1-5.5,5.5-5.5,9.3c0,2.4,0.9,4.7,2.4,6.6c-0.3,0.6-0.7,1-1.2,1.3
	c-0.5,0.3-0.7,0.9-0.6,1.4c0.1,0.5,0.6,0.9,1.1,1c1,0.1,2.8,0.2,4.6-0.7c1.9,1,4.1,1.5,6.3,1.5c5.5,0,10.3-3.1,12-7.8
	C27.1,31.1,26.8,30.6,26.3,30.4z"/>
</svg>
