<?xml version="1.0" encoding="utf-8"?>
<!-- Generator: Adobe Illustrator 19.2.1, SVG Export Plug-In . SVG Version: 6.00 Build 0)  -->
<svg version="1.1" id="Layer_1" xmlns="http://www.w3.org/2000/svg" xmlns:xlink="http://www.w3.org/1999/xlink" x="0px" y="0px"
	 viewBox="0 0 29 21" style="enable-background:new 0 0 29 21;" xml:space="preserve">
<style type="text/css">
	.st0{fill:#F03C6E;}
</style>
<path class="st0" d="M13.3,7.1C13.3,7.1,13.3,7.2,13.3,7.1l2.1,2.1c0.1,0.1,0.2,0.1,0.3,0.1c0.1,0,0.3,0,0.3-0.1
	c0.2-0.2,0.2-0.5,0-0.7l-1.2-1.2H19c0.3,0,0.5-0.2,0.5-0.5S19.3,6.4,19,6.4h-4.2l1.2-1.2c0.2-0.2,0.2-0.5,0-0.7
	c-0.2-0.2-0.5-0.2-0.7,0l-2.1,2c0,0,0,0-0.1,0.1c0,0,0,0,0,0c0,0,0,0,0,0.1c0,0,0,0,0,0c0,0,0,0,0,0.1V7C13.2,7,13.2,7,13.3,7.1
	C13.2,7.1,13.2,7.1,13.3,7.1C13.2,7.1,13.2,7.1,13.3,7.1C13.3,7.1,13.3,7.1,13.3,7.1L13.3,7.1z M23.5,7.2c0,1.4-0.5,2.7-1.4,3.9
	c0.2,0.4,0.4,0.7,0.8,0.9c0.2,0.2,0.4,0.4,0.3,0.7c0,0.3-0.3,0.5-0.6,0.5c-0.9,0.1-1.8,0-2.7-0.4c-1.1,0.6-2.4,0.9-3.7,0.9
	c-4,0-7.3-2.9-7.3-6.5c0-3.6,3.3-6.5,7.3-6.5C20.2,0.7,23.5,3.6,23.5,7.2z M16.2,1.7c-3.5,0-6.3,2.5-6.3,5.5c0,3,2.8,5.5,6.3,5.5
	c1.2,0,2.4-0.3,3.5-0.9c0.2-0.1,0.3-0.1,0.5,0c0.4,0.3,1,0.4,1.6,0.4c-0.3-0.3-0.5-0.7-0.7-1.1c-0.1-0.2,0-0.4,0.1-0.5
	c0.9-1,1.4-2.2,1.4-3.4C22.5,4.2,19.7,1.7,16.2,1.7z M16.5,14.3c-0.3-0.1-0.5,0-0.6,0.3c-0.7,1.9-2.7,3.2-4.9,3.2
	c-1,0-2-0.2-2.8-0.7c-0.2-0.1-0.3-0.1-0.5,0c-0.3,0.2-0.7,0.3-1.1,0.3c0.2-0.2,0.3-0.5,0.4-0.8c0.1-0.2,0-0.4-0.1-0.5
	c-0.7-0.8-1.1-1.7-1.1-2.8c0-1.5,0.8-2.8,2.2-3.7c0.2-0.1,0.3-0.4,0.2-0.6c0,0,0,0,0,0C8.1,8.7,7.8,8.6,7.6,8.8c0,0,0,0,0,0
	c-1.7,1-2.7,2.7-2.7,4.5c0,1.2,0.4,2.3,1.2,3.2c-0.2,0.3-0.3,0.5-0.6,0.7c-0.2,0.1-0.3,0.4-0.3,0.7c0.1,0.3,0.3,0.4,0.5,0.5
	c0.5,0.1,1.3,0.1,2.2-0.3c0.9,0.5,2,0.7,3.1,0.7c2.7,0,5-1.5,5.8-3.8C16.9,14.6,16.7,14.4,16.5,14.3z"/>
</svg>
