<?xml version="1.0" encoding="utf-8"?>
<!-- Generator: Adobe Illustrator 19.2.1, SVG Export Plug-In . SVG Version: 6.00 Build 0)  -->
<svg version="1.1" id="Layer_1" xmlns="http://www.w3.org/2000/svg" xmlns:xlink="http://www.w3.org/1999/xlink" x="0px" y="0px"
	 viewBox="0 0 29 21" style="enable-background:new 0 0 29 21;" xml:space="preserve">
<style type="text/css">
	.st0{fill:#F03C6E;}
</style>
<path class="st0" d="M23.6,11.9C23.6,11.9,23.6,11.6,23.6,11.9C23.6,11.6,23.6,11.6,23.6,11.9C23.8,11.6,23.8,11.6,23.6,11.9
	c0.3-0.5,0.3-0.5,0.5-0.5v-0.5c0-0.3,0-0.3,0-0.3l0,0c0-0.3,0-0.3,0-0.3l0,0C23.8,10,23.8,10,23.8,10l-5.8-5.5
	c-0.5-0.5-1.4-0.5-1.9,0s-0.5,1.4,0,1.9l3.3,3.3H8c-0.8,0-1.4,0.5-1.4,1.4s0.5,1.4,1.4,1.4h11.5l-3.3,3.3c-0.5,0.5-0.5,1.4,0,1.9
	c0,0.3,0.5,0.3,0.8,0.3c0.3,0,0.5,0,0.8-0.3L23.6,11.9L23.6,11.9L23.6,11.9z"/>
</svg>
